<?xml version="1.0" standalone="no"?><!DOCTYPE svg PUBLIC "-//W3C//DTD SVG 1.1//EN" "http://www.w3.org/Graphics/SVG/1.1/DTD/svg11.dtd"><svg t="1560053189111" class="icon" style="" viewBox="0 0 1024 1024" version="1.1" xmlns="http://www.w3.org/2000/svg" p-id="2244" xmlns:xlink="http://www.w3.org/1999/xlink" width="32" height="32"><defs><style type="text/css"></style></defs><path d="M249.9 930.4c-17.6 0-33.8-11.8-38.6-29.7 0 0-18.7-69.8-42.1-157.1-1.4-5.3 1.7-10.8 7.1-12.2 5.3-1.4 10.8 1.7 12.2 7.1 23.4 87.3 42.1 157.1 42.1 157.1 2.9 10.7 13.8 17 24.5 14.1L929 736.5c10.6-2.9 16.9-13.8 14.1-24.4-0.8-2.9-26.3-93.7-52.6-191.9-1.4-5.3 1.7-10.8 7.1-12.2 5.3-1.4 10.8 1.7 12.2 7.1 26.6 99.2 52.3 190.8 52.5 191.7v0.1c5.7 21.3-7 43.3-28.3 49h-0.1L260.2 929.1c-3.5 0.9-6.9 1.3-10.3 1.3z" p-id="2245" fill="#ffffff"></path><path d="M207.2 858.6c-4.5 0-8.5-3-9.7-7.5-1.4-5.4 1.9-10.8 7.2-12.2l196-50c5.3-1.4 10.8 1.9 12.2 7.2 1.4 5.4-1.9 10.8-7.2 12.2l-196 50c-0.9 0.2-1.7 0.3-2.5 0.3zM869.2 748.6h-762c-22.1 0-40-17.9-40-40v-394c0-5.5 4.5-10 10-10s10 4.5 10 10v394c0 11 9 20 20 20h762c11 0 20-9 20-20v-570c0-11-9-20-20-20h-38.5c-5.5 0-10-4.5-10-10s4.5-10 10-10h38.5c22.1 0 40 17.9 40 40v570c0 22-17.9 40-40 40z m-792-551.5c-5.5 0-10-4.5-10-10v-48.5c0-22.1 17.9-40 40-40h582.5c5.5 0 10 4.5 10 10s-4.5 10-10 10H107.2c-11 0-20 9-20 20v48.5c0 5.5-4.5 10-10 10z" p-id="2246" fill="#ffffff"></path><path d="M761.2 109.6m-16 0a16 16 0 1 0 32 0 16 16 0 1 0-32 0Z" p-id="2247" fill="#ffffff"></path><path d="M76.2 251.6m-16 0a16 16 0 1 0 32 0 16 16 0 1 0-32 0Z" p-id="2248" fill="#ffffff"></path><path d="M308.2 370.6c-58.4 0-106-47.6-106-106s47.6-106 106-106 106 47.6 106 106-47.5 106-106 106z m0-192c-47.4 0-86 38.6-86 86s38.6 86 86 86 86-38.6 86-86-38.6-86-86-86zM83.7 605.1c-3.1 0-6.1-1.4-8.1-4.1-3.3-4.5-2.3-10.7 2.2-14l198.5-144.5c4.1-3 9.7-2.4 13.2 1.2l91 97c3.8 4 3.6 10.4-0.5 14.1-4 3.8-10.4 3.6-14.1-0.5l-85-90.6L89.6 603.2c-1.8 1.3-3.8 1.9-5.9 1.9z" p-id="2249" fill="#ffffff"></path><path d="M390.2 575.6c-2.7 0-5.4-1.1-7.4-3.2l-24-26c-3.7-4.1-3.5-10.4 0.6-14.1 4.1-3.7 10.4-3.5 14.1 0.6l17.8 19.2L703 308.8c4.4-3.4 10.6-2.6 14 1.7 3.4 4.4 2.6 10.6-1.7 14l-319 249c-1.8 1.4-3.9 2.1-6.1 2.1z" p-id="2250" fill="#ffffff"></path><path d="M896.2 425.6c-2.7 0-5.4-1.1-7.3-3.2L763.2 287.1l-53.8 42.3c-4.3 3.4-10.6 2.7-14-1.7-3.4-4.3-2.7-10.6 1.7-14l61-48c4.1-3.2 10-2.8 13.5 1.1l132 142c3.8 4 3.5 10.4-0.5 14.1-2 1.8-4.5 2.7-6.9 2.7zM895.2 586.6h-176c-5.5 0-10-4.5-10-10s4.5-10 10-10h176c5.5 0 10 4.5 10 10s-4.5 10-10 10zM893.2 658.6h-340c-5.5 0-10-4.5-10-10s4.5-10 10-10h340c5.5 0 10 4.5 10 10s-4.5 10-10 10z" p-id="2251" fill="#ffffff"></path></svg>